<svg width="142" height="32" viewBox="0 0 142 32" fill="none" xmlns="http://www.w3.org/2000/svg">
<path d="M9.71195 7.54239C10.3242 5.86554 11.9191 4.75 13.7042 4.75H17.1205C20.0073 4.75 22.0541 7.56623 21.163 10.3119L18.8912 17.3119C18.3226 19.0637 16.6905 20.25 14.8487 20.25H11.1484C8.19671 20.25 6.14384 17.3151 7.15617 14.5424L9.71195 7.54239Z" fill="black" stroke="#151718" stroke-width="1.5"/>
<path d="M13.712 14.5424C14.3242 12.8655 15.9191 11.75 17.7042 11.75H21.1205C24.0073 11.75 26.0541 14.5662 25.163 17.3119L22.8912 24.3119C22.3226 26.0637 20.6905 27.25 18.8487 27.25H15.1484C12.1967 27.25 10.1438 24.3151 11.1562 21.5424L13.712 14.5424Z" fill="black" stroke="#151718" stroke-width="1.5"/>
<path d="M43.762 9.936V22.5H41.242V9.936H43.762ZM51.7778 12.384C52.9658 12.384 53.9258 12.762 54.6578 13.518C55.3898 14.262 55.7558 15.306 55.7558 16.65V22.5H53.2358V16.992C53.2358 16.2 53.0378 15.594 52.6418 15.174C52.2458 14.742 51.7058 14.526 51.0218 14.526C50.3258 14.526 49.7738 14.742 49.3658 15.174C48.9698 15.594 48.7718 16.2 48.7718 16.992V22.5H46.2518V12.528H48.7718V13.77C49.1078 13.338 49.5338 13.002 50.0498 12.762C50.5778 12.51 51.1538 12.384 51.7778 12.384ZM62.3102 20.178L64.8302 12.528H67.5122L63.8222 22.5H60.7622L57.0902 12.528H59.7902L62.3102 20.178ZM78.1975 17.298C78.1975 17.658 78.1735 17.982 78.1255 18.27H70.8355C70.8955 18.99 71.1475 19.554 71.5915 19.962C72.0355 20.37 72.5815 20.574 73.2295 20.574C74.1655 20.574 74.8315 20.172 75.2275 19.368H77.9455C77.6575 20.328 77.1055 21.12 76.2895 21.744C75.4735 22.356 74.4715 22.662 73.2835 22.662C72.3235 22.662 71.4595 22.452 70.6915 22.032C69.9355 21.6 69.3415 20.994 68.9095 20.214C68.4895 19.434 68.2795 18.534 68.2795 17.514C68.2795 16.482 68.4895 15.576 68.9095 14.796C69.3295 14.016 69.9175 13.416 70.6735 12.996C71.4295 12.576 72.2995 12.366 73.2835 12.366C74.2315 12.366 75.0775 12.57 75.8215 12.978C76.5775 13.386 77.1595 13.968 77.5675 14.724C77.9875 15.468 78.1975 16.326 78.1975 17.298ZM75.5875 16.578C75.5755 15.93 75.3415 15.414 74.8855 15.03C74.4295 14.634 73.8715 14.436 73.2115 14.436C72.5875 14.436 72.0595 14.628 71.6275 15.012C71.2075 15.384 70.9495 15.906 70.8535 16.578H75.5875ZM83.8529 22.662C83.0369 22.662 82.3049 22.518 81.6569 22.23C81.0089 21.93 80.4929 21.528 80.1089 21.024C79.7369 20.52 79.5329 19.962 79.4969 19.35H82.0349C82.0829 19.734 82.2689 20.052 82.5929 20.304C82.9289 20.556 83.3429 20.682 83.8349 20.682C84.3149 20.682 84.6869 20.586 84.9509 20.394C85.2269 20.202 85.3649 19.956 85.3649 19.656C85.3649 19.332 85.1969 19.092 84.8609 18.936C84.5369 18.768 84.0149 18.588 83.2949 18.396C82.5509 18.216 81.9389 18.03 81.4589 17.838C80.9909 17.646 80.5829 17.352 80.2349 16.956C79.8989 16.56 79.7309 16.026 79.7309 15.354C79.7309 14.802 79.8869 14.298 80.1989 13.842C80.5229 13.386 80.9789 13.026 81.5669 12.762C82.1669 12.498 82.8689 12.366 83.6729 12.366C84.8609 12.366 85.8089 12.666 86.5169 13.266C87.2249 13.854 87.6149 14.652 87.6869 15.66H85.2749C85.2389 15.264 85.0709 14.952 84.7709 14.724C84.4829 14.484 84.0929 14.364 83.6009 14.364C83.1449 14.364 82.7909 14.448 82.5389 14.616C82.2989 14.784 82.1789 15.018 82.1789 15.318C82.1789 15.654 82.3469 15.912 82.6829 16.092C83.0189 16.26 83.5409 16.434 84.2489 16.614C84.9689 16.794 85.5629 16.98 86.0309 17.172C86.4989 17.364 86.9009 17.664 87.2369 18.072C87.5849 18.468 87.7649 18.996 87.7769 19.656C87.7769 20.232 87.6149 20.748 87.2909 21.204C86.9789 21.66 86.5229 22.02 85.9229 22.284C85.3349 22.536 84.6449 22.662 83.8529 22.662ZM92.7795 14.598V19.422C92.7795 19.758 92.8575 20.004 93.0135 20.16C93.1815 20.304 93.4575 20.376 93.8415 20.376H95.0115V22.5H93.4275C91.3035 22.5 90.2415 21.468 90.2415 19.404V14.598H89.0535V12.528H90.2415V10.062H92.7795V12.528H95.0115V14.598H92.7795ZM103.952 16.056C104.66 16.188 105.242 16.542 105.698 17.118C106.154 17.694 106.382 18.354 106.382 19.098C106.382 19.77 106.214 20.364 105.878 20.88C105.554 21.384 105.08 21.78 104.456 22.068C103.832 22.356 103.094 22.5 102.242 22.5H96.824V9.936H102.008C102.86 9.936 103.592 10.074 104.204 10.35C104.828 10.626 105.296 11.01 105.608 11.502C105.932 11.994 106.094 12.552 106.094 13.176C106.094 13.908 105.896 14.52 105.5 15.012C105.116 15.504 104.6 15.852 103.952 16.056ZM99.344 15.12H101.648C102.248 15.12 102.71 14.988 103.034 14.724C103.358 14.448 103.52 14.058 103.52 13.554C103.52 13.05 103.358 12.66 103.034 12.384C102.71 12.108 102.248 11.97 101.648 11.97H99.344V15.12ZM101.882 20.448C102.494 20.448 102.968 20.304 103.304 20.016C103.652 19.728 103.826 19.32 103.826 18.792C103.826 18.252 103.646 17.832 103.286 17.532C102.926 17.22 102.44 17.064 101.828 17.064H99.344V20.448H101.882ZM107.742 17.478C107.742 16.47 107.94 15.576 108.336 14.796C108.744 14.016 109.29 13.416 109.974 12.996C110.67 12.576 111.444 12.366 112.296 12.366C113.04 12.366 113.688 12.516 114.24 12.816C114.804 13.116 115.254 13.494 115.59 13.95V12.528H118.128V22.5H115.59V21.042C115.266 21.51 114.816 21.9 114.24 22.212C113.676 22.512 113.022 22.662 112.278 22.662C111.438 22.662 110.67 22.446 109.974 22.014C109.29 21.582 108.744 20.976 108.336 20.196C107.94 19.404 107.742 18.498 107.742 17.478ZM115.59 17.514C115.59 16.902 115.47 16.38 115.23 15.948C114.99 15.504 114.666 15.168 114.258 14.94C113.85 14.7 113.412 14.58 112.944 14.58C112.476 14.58 112.044 14.694 111.648 14.922C111.252 15.15 110.928 15.486 110.676 15.93C110.436 16.362 110.316 16.878 110.316 17.478C110.316 18.078 110.436 18.606 110.676 19.062C110.928 19.506 111.252 19.848 111.648 20.088C112.056 20.328 112.488 20.448 112.944 20.448C113.412 20.448 113.85 20.334 114.258 20.106C114.666 19.866 114.99 19.53 115.23 19.098C115.47 18.654 115.59 18.126 115.59 17.514ZM126.116 12.384C127.304 12.384 128.264 12.762 128.996 13.518C129.728 14.262 130.094 15.306 130.094 16.65V22.5H127.574V16.992C127.574 16.2 127.376 15.594 126.98 15.174C126.584 14.742 126.044 14.526 125.36 14.526C124.664 14.526 124.112 14.742 123.704 15.174C123.308 15.594 123.11 16.2 123.11 16.992V22.5H120.59V12.528H123.11V13.77C123.446 13.338 123.872 13.002 124.388 12.762C124.916 12.51 125.492 12.384 126.116 12.384ZM138.394 22.5L135.01 18.252V22.5H132.49V9.18H135.01V16.758L138.358 12.528H141.634L137.242 17.532L141.67 22.5H138.394Z" fill="black"/>
</svg>
