<svg width="18" height="22" viewBox="0 0 18 22" fill="none" xmlns="http://www.w3.org/2000/svg">
<path d="M8.99999 20.75C13.5215 19.1915 16.7445 15.5685 17.25 10.9555C17.3903 8.95299 17.3784 6.94272 17.2145 4.942C17.1928 4.62664 17.0544 4.33068 16.8262 4.11193C16.598 3.89318 16.2965 3.76734 15.9805 3.759C13.935 3.696 11.5575 3.355 9.72049 1.5455C9.52852 1.35628 9.26979 1.2502 9.00024 1.2502C8.73069 1.2502 8.47196 1.35628 8.27999 1.5455C6.44249 3.355 4.06499 3.696 2.01999 3.759C1.704 3.76734 1.40246 3.89318 1.17428 4.11193C0.946093 4.33068 0.807651 4.62664 0.785991 4.942C0.621899 6.94271 0.609865 8.95298 0.749991 10.9555C1.25549 15.5685 4.47849 19.1915 8.99999 20.75Z" stroke="#747475" stroke-linecap="round" stroke-linejoin="round"/>
</svg>
