<svg width="18" height="12" viewBox="0 0 18 12" fill="none" xmlns="http://www.w3.org/2000/svg">
<path d="M16.5 0.0625H1.5C1.25136 0.0625 1.0129 0.161272 0.837087 0.337087C0.661272 0.512903 0.5625 0.75136 0.5625 1V11C0.5625 11.2486 0.661272 11.4871 0.837087 11.6629C1.0129 11.8387 1.25136 11.9375 1.5 11.9375H16.5C16.7486 11.9375 16.9871 11.8387 17.1629 11.6629C17.3387 11.4871 17.4375 11.2486 17.4375 11V1C17.4375 0.75136 17.3387 0.512903 17.1629 0.337087C16.9871 0.161272 16.7486 0.0625 16.5 0.0625ZM1.5 0.6875H16.5C16.5829 0.6875 16.6624 0.720424 16.721 0.779029C16.7796 0.837634 16.8125 0.91712 16.8125 1V3.1875H1.1875V1C1.1875 0.91712 1.22042 0.837634 1.27903 0.779029C1.33763 0.720424 1.41712 0.6875 1.5 0.6875ZM16.5 11.3125H1.5C1.41712 11.3125 1.33763 11.2796 1.27903 11.221C1.22042 11.1624 1.1875 11.0829 1.1875 11V3.8125H16.8125V11C16.8125 11.0829 16.7796 11.1624 16.721 11.221C16.6624 11.2796 16.5829 11.3125 16.5 11.3125ZM14.9375 9.125C14.9375 9.20788 14.9046 9.28737 14.846 9.34597C14.7874 9.40458 14.7079 9.4375 14.625 9.4375H12.125C12.0421 9.4375 11.9626 9.40458 11.904 9.34597C11.8454 9.28737 11.8125 9.20788 11.8125 9.125C11.8125 9.04212 11.8454 8.96263 11.904 8.90403C11.9626 8.84542 12.0421 8.8125 12.125 8.8125H14.625C14.7079 8.8125 14.7874 8.84542 14.846 8.90403C14.9046 8.96263 14.9375 9.04212 14.9375 9.125ZM9.9375 9.125C9.9375 9.20788 9.90458 9.28737 9.84597 9.34597C9.78737 9.40458 9.70788 9.4375 9.625 9.4375H8.375C8.29212 9.4375 8.21263 9.40458 8.15403 9.34597C8.09542 9.28737 8.0625 9.20788 8.0625 9.125C8.0625 9.04212 8.09542 8.96263 8.15403 8.90403C8.21263 8.84542 8.29212 8.8125 8.375 8.8125H9.625C9.70788 8.8125 9.78737 8.84542 9.84597 8.90403C9.90458 8.96263 9.9375 9.04212 9.9375 9.125Z" fill="#59595A"/>
</svg>
