<svg width="20" height="20" viewBox="0 0 20 20" fill="none" xmlns="http://www.w3.org/2000/svg">
<path d="M7.22668 11.9417C7.22668 13.0167 8.05168 13.8833 9.07668 13.8833H11.1684C12.06 13.8833 12.785 13.125 12.785 12.1917C12.785 11.175 12.3434 10.8167 11.685 10.5833L8.32668 9.41667C7.66835 9.18333 7.22668 8.825 7.22668 7.80833C7.22668 6.875 7.95168 6.11667 8.84335 6.11667H10.935C11.96 6.11667 12.785 6.98333 12.785 8.05833M10 5V15" stroke="#59595A" stroke-width="0.8" stroke-linecap="round" stroke-linejoin="round"/>
<path d="M9.99996 18.3334C14.6025 18.3334 18.3333 14.6025 18.3333 10C18.3333 5.39752 14.6025 1.66669 9.99996 1.66669C5.39746 1.66669 1.66663 5.39752 1.66663 10C1.66663 14.6025 5.39746 18.3334 9.99996 18.3334Z" stroke="#59595A" stroke-width="0.8" stroke-linecap="round" stroke-linejoin="round"/>
</svg>
